# xmcd
#
# Track frame offsets: 
#        150
#        5022
#        21702
#        26120
#        36172
#        49477
#        61662
#        68962
#        75552
#        80605
#        91130
#        96807
#        104207
#        117687
#        127770
#        136540
#        151947
#        156865
#        164012
#        173687
#        185567
#        203800
#        216920
#        226837
#        238835
#        248205
#        255182
#        268267
#
# Disc length: 3734 seconds
#
# Revision: 4
# Processed by: cddbd v1.5.2PL0 Copyright (c) Steve Scherf et al.
# Submitted via: ExactAudioCopyFreeDBPlugin 1.0
#
DISCID=890e941c
DTITLE=Lead Belly - Sings for Children
DYEAR=1999
DGENRE=Blues
TTITLE0=More Yet
TTITLE1=Boll Weevil
TTITLE2=Little Boy, How Old Are You?
TTITLE3=Skip to My Lou
TTITLE4=Red Bird
TTITLE5=Sally Walker
TTITLE6=Ha Ha This A-Way
TTITLE7=Grey Goose
TTITLE8=Christmas Is A-Coming
TTITLE9=Blue-Tailed Fly (Jimmie, Crack Corn)
TTITLE10=Polly Wee (The Frog Song)
TTITLE11=Pig Latin Song
TTITLE12=When a Man's a Long Way from Home
TTITLE13=Good Morning Blues
TTITLE14=By and By When the Morning Comes
TTITLE15=Every Time I Feel the Spirit
TTITLE16=Swing Low, Sweet Chariot
TTITLE17=Rock Island Line
TTITLE18=Cotton Fields
TTITLE19=Old Man
TTITLE20=John Henry
TTITLE21=Julie Ann Johnson
TTITLE22=Whoa Back Buck
TTITLE23=You Can't Lose Me, Cholly
TTITLE24=Midnight Special
TTITLE25=Pick a Bale of Cotton
TTITLE26=Take This Hammer
TTITLE27=We're in the Same Boat, Brother
EXTD=
EXTT0=
EXTT1=
EXTT2=
EXTT3=
EXTT4=
EXTT5=
EXTT6=
EXTT7=
EXTT8=
EXTT9=
EXTT10=
EXTT11=
EXTT12=
EXTT13=
EXTT14=
EXTT15=
EXTT16=
EXTT17=
EXTT18=
EXTT19=
EXTT20=
EXTT21=
EXTT22=
EXTT23=
EXTT24=
EXTT25=
EXTT26=
EXTT27=
PLAYORDER=
